<svg width="21" height="20" viewBox="0 0 21 20" fill="none" xmlns="http://www.w3.org/2000/svg">
<path d="M9.57272 0.796807C9.9095 -0.0373707 11.0905 -0.0373697 11.4273 0.796808L13.421 5.73522C13.5664 6.09534 13.9072 6.33871 14.295 6.35943L19.7247 6.6495C20.6474 6.6988 21.0153 7.86612 20.2876 8.43561L16.1367 11.6838C15.8189 11.9326 15.6817 12.3479 15.7889 12.737L17.1702 17.7506C17.4117 18.6271 16.4529 19.345 15.6798 18.8664L11.0263 15.9858C10.7038 15.7862 10.2962 15.7862 9.97366 15.9858L5.32021 18.8664C4.54713 19.345 3.58829 18.6271 3.82979 17.7506L5.21107 12.737C5.31826 12.3479 5.18108 11.9326 4.86327 11.6838L0.712394 8.43561C-0.0153471 7.86612 0.352558 6.6988 1.27532 6.6495L6.70502 6.35943C7.09283 6.33871 7.43357 6.09534 7.57895 5.73522L9.57272 0.796807Z" fill="#D22424"/>
</svg>
