<svg width="172" height="90" viewBox="0 0 172 90" fill="none" xmlns="http://www.w3.org/2000/svg">
<path d="M38.408 32.072C38.536 32.264 38.664 32.552 38.792 32.936C38.984 33.32 39.176 33.768 39.368 34.28C39.56 34.728 39.688 35.176 39.752 35.624C39.88 36.008 39.912 36.328 39.848 36.584C39.72 36.968 39.56 37.224 39.368 37.352C39.176 37.416 38.92 37.448 38.6 37.448C37.064 37.448 35.336 37.64 33.416 38.024C31.432 38.408 29.48 38.952 27.56 39.656C25.64 40.36 23.88 41.256 22.28 42.344C20.68 43.432 19.496 44.712 18.728 46.184C18.6 46.504 18.472 46.888 18.344 47.336C18.216 47.72 18.248 48.36 18.44 49.256C18.696 50.088 19.208 51.208 19.976 52.616C20.744 53.96 21.928 55.752 23.528 57.992C24.808 57.096 26.408 56.04 28.328 54.824C30.248 53.544 32.104 52.296 33.896 51.08C35.752 49.864 37.384 48.808 38.792 47.912C40.2 46.952 41.064 46.344 41.384 46.088C41.832 45.768 42.344 45.608 42.92 45.608H43.016C43.72 45.672 44.168 46.056 44.36 46.76C44.616 47.4 44.456 47.944 43.88 48.392C40.872 50.696 37.864 52.808 34.856 54.728C31.912 56.584 28.904 58.696 25.832 61.064C26.728 62.216 27.624 63.4 28.52 64.616C29.416 65.832 30.216 67.08 30.92 68.36C31.24 68.936 31.528 69.672 31.784 70.568C32.104 71.464 32.232 72.488 32.168 73.64C32.168 74.728 31.912 75.912 31.4 77.192C30.888 78.472 29.992 79.752 28.712 81.032C27.816 81.928 26.568 82.888 24.968 83.912C23.432 85 21.768 85.992 19.976 86.888C18.184 87.784 16.392 88.52 14.6 89.096C12.808 89.672 11.24 89.96 9.896 89.96C8.808 89.96 7.784 89.736 6.824 89.288C5.928 88.904 5.032 88.296 4.136 87.464L2.6 86.024C2.088 85.448 1.608 84.808 1.16 84.104C0.712 83.464 0.424 82.76 0.296 81.992C0.104 81.288 0.168 80.552 0.488 79.784C0.936 78.568 1.672 77.384 2.696 76.232C3.976 74.696 5.352 73.256 6.824 71.912C8.36 70.504 9.864 69.16 11.336 67.88C12.68 66.664 14.024 65.544 15.368 64.52C16.776 63.432 18.216 62.344 19.688 61.256C19.24 60.68 18.696 59.944 18.056 59.048C17.416 58.088 16.744 57.128 16.04 56.168C15.4 55.208 14.76 54.248 14.12 53.288C13.544 52.328 13.064 51.496 12.68 50.792C11.4 48.616 10.76 46.6 10.76 44.744C10.824 42.824 11.24 41 12.008 39.272C12.776 37.608 13.864 36.072 15.272 34.664C16.68 33.256 18.248 32.04 19.976 31.016C21.768 29.992 23.624 29.192 25.544 28.616C27.464 27.976 29.288 27.656 31.016 27.656C32.872 27.656 34.312 27.976 35.336 28.616C36.36 29.256 37.384 30.408 38.408 32.072ZM3.464 81.128C5 80.936 6.92 80.488 9.224 79.784C11.528 79.144 13.768 78.28 15.944 77.192C18.12 76.104 19.976 74.824 21.512 73.352C23.112 71.816 24.008 70.152 24.2 68.36C24.2 68.04 24.104 67.688 23.912 67.304C23.784 66.92 23.592 66.536 23.336 66.152C23.144 65.704 22.92 65.32 22.664 65C22.408 64.616 22.216 64.36 22.088 64.232C18.056 67.88 14.44 71.112 11.24 73.928C8.104 76.68 5.512 79.08 3.464 81.128ZM81.314 22.568C81.57 22.888 81.826 23.304 82.082 23.816C82.402 24.264 82.498 24.712 82.37 25.16C82.306 25.672 81.954 25.928 81.314 25.928H80.93C74.914 25.352 68.834 25.064 62.69 25.064C60.642 28.52 58.562 32.36 56.45 36.584C54.338 40.744 52.418 45.096 50.69 49.64C48.962 54.12 47.522 58.632 46.37 63.176C45.218 67.72 44.578 72.072 44.45 76.232C44.322 77.64 44.322 79.016 44.45 80.36C44.514 80.68 44.546 81 44.546 81.32C44.61 81.64 44.674 81.96 44.738 82.28V82.568C44.866 82.952 44.962 83.336 45.026 83.72C45.154 84.104 45.282 84.488 45.41 84.872C45.922 85.384 46.37 85.896 46.754 86.408C47.138 86.984 47.426 87.56 47.618 88.136C47.746 88.456 47.778 88.744 47.714 89C47.65 89.256 47.458 89.448 47.138 89.576H46.85C46.466 89.576 46.05 89.448 45.602 89.192C45.154 88.936 44.802 88.744 44.546 88.616C42.498 87.336 40.77 85.736 39.362 83.816C37.954 81.896 36.994 79.752 36.482 77.384C36.098 75.208 35.938 73.032 36.002 70.856C36.002 68.68 36.162 66.472 36.482 64.232C37.506 57.64 39.266 51.016 41.762 44.36C44.258 37.704 47.074 31.432 50.21 25.544C48.354 25.672 46.53 25.832 44.738 26.024C42.946 26.152 41.122 26.344 39.266 26.6C38.626 26.6 37.89 26.408 37.058 26.024C36.226 25.576 35.426 25.032 34.658 24.392C33.89 23.752 33.218 23.048 32.642 22.28C32.066 21.512 31.714 20.808 31.586 20.168C31.458 19.848 31.426 19.528 31.49 19.208C31.554 18.888 31.778 18.696 32.162 18.632C36.002 18.12 39.778 17.768 43.49 17.576C47.266 17.32 51.074 17.16 54.914 17.096L57.506 13.16C58.722 11.368 60.034 9.512 61.442 7.592C62.914 5.672 64.322 4.008 65.666 2.6C67.074 1.128 68.194 0.391996 69.026 0.391996C69.602 0.391996 70.242 0.615997 70.946 1.064C71.714 1.448 72.418 1.928 73.058 2.504C73.762 3.08 74.37 3.688 74.882 4.328C75.458 4.968 75.874 5.512 76.13 5.96C76.13 6.024 76.162 6.152 76.226 6.34399C76.354 6.536 76.45 6.76 76.514 7.016C76.578 7.208 76.61 7.4 76.61 7.592C76.61 7.784 76.546 7.912 76.418 7.976C75.714 8.35999 74.946 8.96799 74.114 9.8C73.282 10.568 72.482 11.4 71.714 12.296C70.946 13.192 70.21 14.088 69.506 14.984C68.802 15.88 68.194 16.68 67.682 17.384C68.962 17.512 70.242 17.608 71.522 17.672C72.802 17.736 74.082 17.832 75.362 17.96C75.874 18.024 76.418 18.248 76.994 18.632C77.57 18.952 78.114 19.336 78.626 19.784C79.202 20.232 79.714 20.712 80.162 21.224C80.674 21.736 81.058 22.184 81.314 22.568ZM95.588 69.32C93.988 71.624 92.324 73.544 90.596 75.08C88.868 76.552 87.076 77.288 85.22 77.288C84.132 77.288 83.108 77.064 82.148 76.616C81.252 76.104 80.42 75.464 79.652 74.696C78.948 73.928 78.34 73.064 77.828 72.104C77.316 71.144 76.932 70.184 76.676 69.224C76.356 68.072 76.228 67.016 76.292 66.056C76.42 65.032 76.42 64.136 76.292 63.368C75.908 63.88 75.268 64.904 74.372 66.44C73.54 67.912 72.612 69.448 71.588 71.048C70.564 72.584 69.508 73.992 68.42 75.272C67.396 76.552 66.5 77.192 65.732 77.192C64.772 77.192 63.716 76.872 62.564 76.232C61.412 75.528 60.324 74.696 59.3 73.736C58.276 72.776 57.348 71.752 56.516 70.664C55.748 69.512 55.236 68.488 54.98 67.592C54.596 66.312 54.436 65.032 54.5 63.752C54.628 62.408 54.788 61.096 54.98 59.816C55.236 58.408 55.62 56.776 56.132 54.92C56.708 53.064 57.412 51.112 58.244 49.064C59.076 47.016 60.036 45.032 61.124 43.112C62.276 41.128 63.524 39.368 64.868 37.832C66.212 36.232 67.652 34.984 69.188 34.088C70.788 33.128 72.484 32.648 74.276 32.648C75.94 32.648 77.508 33.128 78.98 34.088C80.452 34.984 81.764 35.976 82.916 37.064C83.044 36.808 83.172 36.424 83.3 35.912C83.492 35.336 83.652 34.792 83.78 34.28C83.972 33.768 84.132 33.32 84.26 32.936C84.388 32.488 84.484 32.264 84.548 32.264H84.74C85.06 32.264 85.7 32.424 86.66 32.744C87.684 33 88.708 33.416 89.732 33.992C90.82 34.504 91.748 35.144 92.516 35.912C93.284 36.68 93.604 37.544 93.476 38.504C93.476 38.568 93.22 39.208 92.708 40.424C92.26 41.64 91.684 43.208 90.98 45.128C90.34 46.984 89.668 49.064 88.964 51.368C88.26 53.672 87.652 55.944 87.14 58.184C86.692 60.36 86.404 62.408 86.276 64.328C86.148 66.184 86.34 67.624 86.852 68.648C87.236 69.224 87.62 69.512 88.004 69.512C88.836 69.512 89.828 68.744 90.98 67.208C92.132 65.672 93.38 63.72 94.724 61.352C96.068 58.984 97.444 56.36 98.852 53.48C100.26 50.6 101.604 47.816 102.884 45.128C103.076 44.68 103.332 44.392 103.652 44.264C104.036 44.072 104.388 43.976 104.708 43.976C105.348 43.976 105.892 44.168 106.34 44.552C106.852 44.872 107.044 45.192 106.916 45.512C106.852 45.704 106.5 46.632 105.86 48.296C105.284 49.96 104.484 51.976 103.46 54.344C102.5 56.648 101.348 59.144 100.004 61.832C98.66 64.52 97.188 67.016 95.588 69.32ZM65.444 65.192C66.724 64.424 68.292 63.08 70.148 61.16C72.004 59.176 73.956 56.52 76.004 53.192C78.116 49.864 80.004 45.576 81.668 40.328C79.94 40.392 78.308 40.904 76.772 41.864C75.3 42.824 73.924 44.072 72.644 45.608C71.364 47.08 70.18 48.776 69.092 50.696C68.068 52.552 67.172 54.44 66.404 56.36C65.636 58.28 64.964 60.168 64.388 62.024C63.812 63.816 63.396 65.384 63.14 66.728C63.332 66.536 64.1 66.024 65.444 65.192ZM94.649 70.76C95.737 63.912 97.337 57.128 99.449 50.408C101.625 43.688 104.121 37.16 106.937 30.824C107.257 30.056 107.801 29.672 108.569 29.672C108.953 29.672 109.273 29.768 109.529 29.96C110.617 30.856 111.577 31.72 112.409 32.552C113.113 33.256 113.753 33.96 114.329 34.664C114.905 35.368 115.129 35.912 115.001 36.296C114.681 37.576 114.233 39.048 113.657 40.712C113.081 42.312 112.601 43.592 112.217 44.552C111.897 45.384 111.641 46.088 111.449 46.664C111.321 47.176 111.193 47.624 111.065 48.008C111.001 48.392 110.969 48.712 110.969 48.968C113.337 45.128 115.513 41.672 117.497 38.6C118.393 37.256 119.257 35.944 120.089 34.664C120.985 33.384 121.817 32.232 122.585 31.208C123.353 30.184 124.025 29.32 124.601 28.616C125.177 27.912 125.625 27.464 125.945 27.272C126.521 26.952 127.129 26.664 127.769 26.408C128.409 26.088 129.081 25.928 129.785 25.928C130.873 25.928 131.897 26.184 132.857 26.696C133.817 27.208 134.681 27.816 135.449 28.52C136.025 29.032 136.281 29.832 136.217 30.92C136.217 31.944 136.025 33.128 135.641 34.472C135.321 35.816 134.905 37.224 134.393 38.696C133.881 40.168 133.433 41.608 133.049 43.016C132.665 44.36 132.409 45.608 132.281 46.76C132.217 47.848 132.441 48.712 132.953 49.352C130.777 49.032 128.921 48.552 127.385 47.912C126.105 47.272 124.985 46.44 124.025 45.416C123.129 44.328 122.937 42.952 123.449 41.288C124.025 39.56 124.633 38.184 125.273 37.16C125.913 36.136 126.169 35.624 126.041 35.624L125.945 35.72C125.881 35.72 125.817 35.752 125.753 35.816C123.705 37.672 121.369 40.424 118.745 44.072C116.121 47.656 113.369 52.488 110.489 58.568L107.321 65.768C106.617 67.432 105.945 69.128 105.305 70.856C104.729 72.584 104.089 74.376 103.385 76.232C103.385 76.168 103.353 76.264 103.289 76.52C103.225 76.712 103.097 76.936 102.905 77.192C102.713 77.512 102.489 77.768 102.233 77.96C102.041 78.216 101.817 78.344 101.561 78.344C101.113 78.344 100.601 78.152 100.025 77.768C99.449 77.384 98.873 76.936 98.297 76.424C97.721 75.848 97.209 75.304 96.761 74.792C96.249 74.216 95.865 73.736 95.609 73.352C95.417 73.032 95.193 72.648 94.937 72.2C94.681 71.688 94.585 71.208 94.649 70.76ZM165.252 32.072C165.38 32.264 165.508 32.552 165.636 32.936C165.828 33.32 166.02 33.768 166.212 34.28C166.404 34.728 166.532 35.176 166.596 35.624C166.724 36.008 166.756 36.328 166.692 36.584C166.564 36.968 166.404 37.224 166.212 37.352C166.02 37.416 165.764 37.448 165.444 37.448C163.908 37.448 162.18 37.64 160.26 38.024C158.276 38.408 156.324 38.952 154.404 39.656C152.484 40.36 150.724 41.256 149.124 42.344C147.524 43.432 146.34 44.712 145.572 46.184C145.444 46.504 145.316 46.888 145.188 47.336C145.06 47.72 145.092 48.36 145.284 49.256C145.54 50.088 146.052 51.208 146.82 52.616C147.588 53.96 148.772 55.752 150.372 57.992C151.652 57.096 153.252 56.04 155.172 54.824C157.092 53.544 158.948 52.296 160.74 51.08C162.596 49.864 164.228 48.808 165.636 47.912C167.044 46.952 167.908 46.344 168.228 46.088C168.676 45.768 169.188 45.608 169.764 45.608H169.86C170.564 45.672 171.012 46.056 171.204 46.76C171.46 47.4 171.3 47.944 170.724 48.392C167.716 50.696 164.708 52.808 161.7 54.728C158.756 56.584 155.748 58.696 152.676 61.064C153.572 62.216 154.468 63.4 155.364 64.616C156.26 65.832 157.06 67.08 157.764 68.36C158.084 68.936 158.372 69.672 158.628 70.568C158.948 71.464 159.076 72.488 159.012 73.64C159.012 74.728 158.756 75.912 158.244 77.192C157.732 78.472 156.836 79.752 155.556 81.032C154.66 81.928 153.412 82.888 151.812 83.912C150.276 85 148.612 85.992 146.82 86.888C145.028 87.784 143.236 88.52 141.444 89.096C139.652 89.672 138.084 89.96 136.74 89.96C135.652 89.96 134.628 89.736 133.668 89.288C132.772 88.904 131.876 88.296 130.98 87.464L129.444 86.024C128.932 85.448 128.452 84.808 128.004 84.104C127.556 83.464 127.268 82.76 127.14 81.992C126.948 81.288 127.012 80.552 127.332 79.784C127.78 78.568 128.516 77.384 129.54 76.232C130.82 74.696 132.196 73.256 133.668 71.912C135.204 70.504 136.708 69.16 138.18 67.88C139.524 66.664 140.868 65.544 142.212 64.52C143.62 63.432 145.06 62.344 146.532 61.256C146.084 60.68 145.54 59.944 144.9 59.048C144.26 58.088 143.588 57.128 142.884 56.168C142.244 55.208 141.604 54.248 140.964 53.288C140.388 52.328 139.908 51.496 139.524 50.792C138.244 48.616 137.604 46.6 137.604 44.744C137.668 42.824 138.084 41 138.852 39.272C139.62 37.608 140.708 36.072 142.116 34.664C143.524 33.256 145.092 32.04 146.82 31.016C148.612 29.992 150.468 29.192 152.388 28.616C154.308 27.976 156.132 27.656 157.86 27.656C159.716 27.656 161.156 27.976 162.18 28.616C163.204 29.256 164.228 30.408 165.252 32.072ZM130.308 81.128C131.844 80.936 133.764 80.488 136.068 79.784C138.372 79.144 140.612 78.28 142.788 77.192C144.964 76.104 146.82 74.824 148.356 73.352C149.956 71.816 150.852 70.152 151.044 68.36C151.044 68.04 150.948 67.688 150.756 67.304C150.628 66.92 150.436 66.536 150.18 66.152C149.988 65.704 149.764 65.32 149.508 65C149.252 64.616 149.06 64.36 148.932 64.232C144.9 67.88 141.284 71.112 138.084 73.928C134.948 76.68 132.356 79.08 130.308 81.128Z" fill="url(#paint0_linear_2_358)"/>
<defs>
<linearGradient id="paint0_linear_2_358" x1="149" y1="21.5" x2="-1.91153" y2="92.0519" gradientUnits="userSpaceOnUse">
<stop stop-color="#D22424"/>
<stop offset="1" stop-color="#FA4141"/>
</linearGradient>
</defs>
</svg>
