<svg width="88" height="20" viewBox="0 0 88 20" fill="none" xmlns="http://www.w3.org/2000/svg">
<path d="M2.15 1.175L7.425 1.25C10.1583 1.25 12.1583 1.15 13.425 0.949998C13.6083 1.3 13.7 1.7 13.7 2.15C13.7 2.6 13.5 3.00833 13.1 3.375C12.7 3.725 12.2167 3.9 11.65 3.9L8.775 3.575C8.775 3.69167 8.73333 4.20833 8.65 5.125C8.41667 7.375 8.3 9.63333 8.3 11.9C8.3 14.1667 8.475 16.4333 8.825 18.7C8.275 18.9 7.7 19 7.1 19C6.5 19 5.98333 18.8333 5.55 18.5C5.11667 18.15 4.9 17.6333 4.9 16.95C4.9 16.25 4.98333 15.025 5.15 13.275C5.31667 11.525 5.4 9.825 5.4 8.175C5.4 6.50833 5.31667 4.95833 5.15 3.525C3.13333 3.625 1.55833 3.90833 0.425 4.375C0.225 3.99167 0.125 3.56667 0.125 3.1C0.125 2.61667 0.316667 2.175 0.7 1.775C1.08333 1.375 1.56667 1.175 2.15 1.175ZM26.6439 8.9L26.3939 14.4C26.3939 15.8667 26.6356 17.35 27.1189 18.85C26.6023 19.05 26.0773 19.15 25.5439 19.15C24.0939 19.15 23.3689 18.3833 23.3689 16.85C23.3689 15.7167 23.4689 14.3833 23.6689 12.85C23.8689 11.3167 23.9689 10.375 23.9689 10.025C23.9689 9.15833 23.5773 8.725 22.7939 8.725C21.9606 8.725 21.0356 9.50833 20.0189 11.075C19.0023 12.625 18.4189 13.925 18.2689 14.975C18.3023 15.4583 18.4689 16.7 18.7689 18.7C18.2523 18.9 17.6856 19 17.0689 19C15.7856 19 15.1439 18.375 15.1439 17.125C15.1439 16.525 15.2356 15.35 15.4189 13.6C15.6023 11.8333 15.6939 10.4167 15.6939 9.35C15.6939 5.8 15.4939 2.86667 15.0939 0.549999C15.6273 0.349999 16.1773 0.249999 16.7439 0.249999C17.3106 0.249999 17.7773 0.441665 18.1439 0.824999C18.5273 1.19167 18.7189 1.7 18.7189 2.35C18.7189 3 18.6273 4.34167 18.4439 6.375C18.2773 8.40833 18.1939 9.99167 18.1939 11.125C18.7773 9.89167 19.6273 8.76667 20.7439 7.75C21.8773 6.71667 23.0023 6.2 24.1189 6.2C25.8023 6.2 26.6439 7.1 26.6439 8.9ZM31.9191 13.325C31.9191 14.525 32.1108 15.475 32.4941 16.175C32.8775 16.8583 33.5191 17.2 34.4191 17.2C35.3191 17.2 36.0191 16.9 36.5191 16.3C37.0358 15.6833 37.2941 14.9417 37.2941 14.075C37.8608 14.075 38.3525 14.2167 38.7691 14.5C39.1858 14.7833 39.3941 15.175 39.3941 15.675C39.3941 16.7083 38.8441 17.575 37.7441 18.275C36.6441 18.9583 35.4858 19.3 34.2691 19.3C32.3691 19.3 30.9941 18.7917 30.1441 17.775C29.2941 16.7417 28.8691 15.2167 28.8691 13.2C28.8691 11.1833 29.4358 9.49167 30.5691 8.125C31.7191 6.74167 33.2441 6.05 35.1441 6.05C36.4441 6.05 37.4858 6.35 38.2691 6.95C39.0691 7.53333 39.4691 8.45 39.4691 9.7C39.4691 10.9333 38.9025 11.8667 37.7691 12.5C36.6525 13.1167 35.2858 13.425 33.6691 13.425C33.1025 13.425 32.5191 13.3917 31.9191 13.325ZM31.9441 11.35C32.4441 11.45 32.9691 11.5 33.5191 11.5C34.7191 11.5 35.7275 11.275 36.5441 10.825C36.6441 10.425 36.6941 10.1083 36.6941 9.875C36.6941 9.29167 36.4858 8.85 36.0691 8.55C35.6525 8.25 35.0775 8.1 34.3441 8.1C33.6275 8.1 32.9775 8.33333 32.3941 8.8C32.0941 9.66667 31.9441 10.5167 31.9441 11.35ZM53.2523 7.225C52.8023 9.14167 52.5773 11.0667 52.5773 13C52.5773 14.9167 52.794 16.8167 53.2273 18.7C52.6273 18.9 52.0107 19 51.3773 19C50.744 19 50.3023 18.8167 50.0523 18.45C49.8023 18.0667 49.6773 17.525 49.6773 16.825C49.6773 16.1083 49.7857 15.1333 50.0023 13.9C48.819 16.4333 47.6773 18.0333 46.5773 18.7C46.0773 19 45.5607 19.15 45.0273 19.15C43.7607 19.15 42.7773 18.6833 42.0773 17.75C41.3773 16.8 41.0273 15.625 41.0273 14.225C41.0273 12.0917 41.619 10.225 42.8023 8.625C43.9857 7.00833 45.519 6.2 47.4023 6.2C49.3023 6.2 51.2523 6.54167 53.2523 7.225ZM49.9773 8.725C49.094 8.45833 48.344 8.325 47.7273 8.325C46.4773 8.325 45.544 8.6 44.9273 9.15C44.3607 10.55 44.0773 11.975 44.0773 13.425C44.0773 14.1917 44.194 14.9667 44.4273 15.75C44.6773 16.5333 45.0523 16.925 45.5523 16.925C46.1357 16.925 46.8857 16.0667 47.8023 14.35C48.719 12.6333 49.444 10.7583 49.9773 8.725ZM56.4254 2.675C56.9587 2.40833 57.5004 2.275 58.0504 2.275C58.6004 2.275 59.0421 2.45 59.3754 2.8C59.7254 3.15 59.9004 3.66667 59.9004 4.35C59.9004 5.03333 59.8587 5.80833 59.7754 6.675C61.0254 6.675 62.2171 6.5 63.3504 6.15C63.5504 6.48333 63.6504 6.875 63.6504 7.325C63.6504 7.75833 63.4504 8.11667 63.0504 8.4C62.6671 8.66667 62.2754 8.8 61.8754 8.8C61.4754 8.8 61.0254 8.75 60.5254 8.65C60.0254 8.55 59.7004 8.49167 59.5504 8.475C59.5337 8.625 59.4837 8.925 59.4004 9.375C59.3337 9.825 59.2754 10.2167 59.2254 10.55C59.0921 11.4667 59.0254 12.45 59.0254 13.5C59.0254 15.7833 59.7671 16.925 61.2504 16.925C61.8004 16.925 62.4337 16.7333 63.1504 16.35C63.3671 16.6667 63.4754 17.075 63.4754 17.575C63.4754 18.075 63.2004 18.4667 62.6504 18.75C62.1171 19.0167 61.4754 19.15 60.7254 19.15C57.7921 19.15 56.3254 17.4833 56.3254 14.15C56.3254 13.6667 56.3921 12.7917 56.5254 11.525C56.6754 10.2583 56.7504 9.23333 56.7504 8.45C55.9504 8.5 55.3087 8.64167 54.8254 8.875C54.6254 8.575 54.5254 8.23333 54.5254 7.85C54.5254 7.45 54.6671 7.125 54.9504 6.875C55.2337 6.60833 55.5837 6.475 56.0004 6.475C56.4171 6.475 56.6921 6.48333 56.8254 6.5C56.8421 6.36667 56.8504 6.19167 56.8504 5.975C56.8504 4.725 56.7087 3.625 56.4254 2.675ZM67.5637 13.325C67.5637 14.525 67.7553 15.475 68.1387 16.175C68.522 16.8583 69.1637 17.2 70.0637 17.2C70.9637 17.2 71.6637 16.9 72.1637 16.3C72.6803 15.6833 72.9387 14.9417 72.9387 14.075C73.5053 14.075 73.997 14.2167 74.4137 14.5C74.8303 14.7833 75.0387 15.175 75.0387 15.675C75.0387 16.7083 74.4887 17.575 73.3887 18.275C72.2887 18.9583 71.1303 19.3 69.9137 19.3C68.0137 19.3 66.6387 18.7917 65.7887 17.775C64.9387 16.7417 64.5137 15.2167 64.5137 13.2C64.5137 11.1833 65.0803 9.49167 66.2137 8.125C67.3637 6.74167 68.8887 6.05 70.7887 6.05C72.0887 6.05 73.1303 6.35 73.9137 6.95C74.7137 7.53333 75.1137 8.45 75.1137 9.7C75.1137 10.9333 74.547 11.8667 73.4137 12.5C72.297 13.1167 70.9303 13.425 69.3137 13.425C68.747 13.425 68.1637 13.3917 67.5637 13.325ZM67.5887 11.35C68.0887 11.45 68.6137 11.5 69.1637 11.5C70.3637 11.5 71.372 11.275 72.1887 10.825C72.2887 10.425 72.3387 10.1083 72.3387 9.875C72.3387 9.29167 72.1303 8.85 71.7137 8.55C71.297 8.25 70.722 8.1 69.9887 8.1C69.272 8.1 68.622 8.33333 68.0387 8.8C67.7387 9.66667 67.5887 10.5167 67.5887 11.35ZM81.1469 18.7C80.6302 18.9 80.0802 19 79.4969 19C78.9135 19 78.4385 18.8667 78.0719 18.6C77.7219 18.3167 77.5469 17.9333 77.5469 17.45C77.5469 16.95 77.6219 16.05 77.7719 14.75C77.9219 13.45 77.9969 12.1917 77.9969 10.975C77.9969 9.74167 77.8052 8.3 77.4219 6.65C77.9552 6.45 78.4802 6.35 78.9969 6.35C79.5135 6.35 79.9552 6.525 80.3219 6.875C80.7052 7.225 80.8969 7.69167 80.8969 8.275C80.8969 8.575 80.8469 9.025 80.7469 9.625C80.6469 10.2083 80.5885 10.65 80.5719 10.95C81.2219 9.46667 81.9885 8.30833 82.8719 7.475C83.7719 6.625 84.6635 6.2 85.5469 6.2C86.1635 6.2 86.6552 6.41667 87.0219 6.85C87.3885 7.28333 87.5719 7.83333 87.5719 8.5C87.5719 9.15 87.4052 9.68333 87.0719 10.1C86.7385 10.5 86.3219 10.7 85.8219 10.7C85.3385 10.7 84.9469 10.65 84.6469 10.55C84.6969 10.35 84.7219 10.1667 84.7219 10C84.7219 9.31667 84.4802 8.975 83.9969 8.975C83.2635 8.975 82.5719 9.71667 81.9219 11.2C81.2885 12.6667 80.8635 14.0417 80.6469 15.325C80.7302 16.575 80.8969 17.7 81.1469 18.7Z" fill="white"/>
</svg>
