<svg width="22" height="17" viewBox="0 0 22 17" fill="none" xmlns="http://www.w3.org/2000/svg">
<path d="M0.626465 10.2538H13.436C13.5183 10.2538 13.5998 10.2377 13.6758 10.2062C13.7519 10.1748 13.821 10.1286 13.8792 10.0704C13.9373 10.0123 13.9835 9.94317 14.0149 9.86713C14.0464 9.7911 14.0626 9.70961 14.0625 9.62732V7.75525C14.0626 7.67296 14.0464 7.59147 14.0149 7.51544C13.9835 7.4394 13.9373 7.37031 13.8792 7.31213C13.821 7.25394 13.7519 7.2078 13.6758 7.17634C13.5998 7.14488 13.5183 7.12872 13.436 7.12878H0.626465C0.544178 7.12872 0.462687 7.14488 0.386651 7.17634C0.310616 7.2078 0.24153 7.25394 0.183344 7.31213C0.125159 7.37031 0.0790163 7.4394 0.0475562 7.51544C0.0160961 7.59147 -6.40206e-05 7.67296 1.90603e-07 7.75525V9.62732C-6.40206e-05 9.70961 0.0160961 9.7911 0.0475562 9.86713C0.0790163 9.94317 0.125159 10.0123 0.183344 10.0704C0.24153 10.1286 0.310616 10.1748 0.386651 10.2062C0.462687 10.2377 0.544178 10.2538 0.626465 10.2538ZM21.0938 0.878784H0.78125C0.57405 0.878784 0.375336 0.961095 0.228823 1.10761C0.0823102 1.25412 1.90603e-07 1.45283 1.90603e-07 1.66003V3.22253C1.90603e-07 3.42973 0.0823102 3.62845 0.228823 3.77496C0.375336 3.92147 0.57405 4.00378 0.78125 4.00378H21.0938C21.301 4.00378 21.4997 3.92147 21.6462 3.77496C21.7927 3.62845 21.875 3.42973 21.875 3.22253V1.66003C21.875 1.45283 21.7927 1.25412 21.6462 1.10761C21.4997 0.961095 21.301 0.878784 21.0938 0.878784ZM21.0938 13.3788H0.78125C0.57405 13.3788 0.375336 13.4611 0.228823 13.6076C0.0823102 13.7541 1.90603e-07 13.9528 1.90603e-07 14.16V15.7225C1.90603e-07 15.9297 0.0823102 16.1284 0.228823 16.275C0.375336 16.4215 0.57405 16.5038 0.78125 16.5038H21.0938C21.301 16.5038 21.4997 16.4215 21.6462 16.275C21.7927 16.1284 21.875 15.9297 21.875 15.7225V14.16C21.875 13.9528 21.7927 13.7541 21.6462 13.6076C21.4997 13.4611 21.301 13.3788 21.0938 13.3788Z" fill="#D22424"/>
</svg>
